# xmcd
#
# Track frame offsets: 
#        150
#        22008
#        46083
#        63494
#        88600
#        104103
#        126678
#        148615
#        166031
#        184474
#        200601
#        217804
#        234472
#        257469
#        274532
#        288183
#        308343
#        327383
#
# Disc length: 4618 seconds
#
# Revision: 2
# Processed by: cddbd v1.5.2PL0 Copyright (c) Steve Scherf et al.
# Submitted via: ExactAudioCopyFreeDBPlugin 1.0
#
DISCID=07120812
DTITLE=Various Artist - 80's Replay 2 - Disc 2
DYEAR=2005
DGENRE=Pop
TTITLE0=I Wanna Dance With Somebody - Whitney Houston
TTITLE1=Freedom - Wham!
TTITLE2=Together In Electric Dreams - Philip Oakey and Gorgio Moroder
TTITLE3=You're My Heart, You're My Soul - Modern Talking
TTITLE4=Together Forever - Rick Ashley
TTITLE5=Here Come The Rain Again - Eurythmics
TTITLE6=We Built This City - Starship
TTITLE7=The Tide Is High - Blondie
TTITLE8=Blue Monday 88 - New Order
TTITLE9=A Little Respect - Erasure
TTITLE10=When Doves Cry - Prince
TTITLE11=Circle In The Sand - Belinda Carlisle
TTITLE12=Some Like It Hot - Power Station
TTITLE13=I Think We're Alone Now - Tiffany
TTITLE14=Harold Faltermeyer - Axel F
TTITLE15=Total Eclipse Of The Heart - Bonnie Tyler
TTITLE16=White Wedding - Part 1 - Billy Idol
TTITLE17=The Final Countdown - Europe
EXTD=
EXTT0=
EXTT1=
EXTT2=
EXTT3=
EXTT4=
EXTT5=
EXTT6=
EXTT7=
EXTT8=
EXTT9=
EXTT10=
EXTT11=
EXTT12=
EXTT13=
EXTT14=
EXTT15=
EXTT16=
EXTT17=
PLAYORDER=
